<?xml version="1.0" encoding="iso-8859-1"?>
<!-- Generator: Adobe Illustrator 19.0.0, SVG Export Plug-In . SVG Version: 6.00 Build 0)  -->
<svg version="1.1" id="Capa_1" xmlns="http://www.w3.org/2000/svg" xmlns:xlink="http://www.w3.org/1999/xlink" x="0px" y="0px"
	 viewBox="0 0 100.891 100.891" style="enable-background:new 0 0 100.891 100.891;" xml:space="preserve">
<g>
	<path d="M75.055,0H25.835c-7.522,0-13.643,6.12-13.643,13.643V87.25c0,7.521,6.12,13.641,13.643,13.641h49.22
		c7.522,0,13.643-6.119,13.643-13.641V13.642C88.698,6.12,82.578,0,75.055,0z M82.698,87.25c0,4.213-3.429,7.641-7.643,7.641H25.835
		c-4.214,0-7.643-3.428-7.643-7.641V13.642c0-4.214,3.428-7.643,7.643-7.643h49.22c4.214,0,7.643,3.428,7.643,7.643L82.698,87.25
		L82.698,87.25z"/>
	<path d="M72.533,11.343H28.356c-1.88,0-3.409,1.456-3.409,3.247v63.391c0,1.791,1.529,3.248,3.409,3.248h44.176
		c1.882,0,3.41-1.457,3.41-3.248v-63.39C75.943,12.8,74.415,11.343,72.533,11.343z M69.943,75.229H30.947V17.343h38.995
		C69.942,17.343,69.942,75.229,69.943,75.229z"/>
	<rect x="43.794" y="85.863" width="13.303" height="6"/>
</g>
<g>
</g>
<g>
</g>
<g>
</g>
<g>
</g>
<g>
</g>
<g>
</g>
<g>
</g>
<g>
</g>
<g>
</g>
<g>
</g>
<g>
</g>
<g>
</g>
<g>
</g>
<g>
</g>
<g>
</g>
</svg>
