<svg width="800px" height="800px" viewBox="0 0 32 32" stroke="currentColor" stroke='0'>

    <g id="Group_1918" data-name="Group 1918" transform="translate(-364 -416)">
      <path stroke-linecap="round" stroke-linejoin="round" id="Path_3757" data-name="Path 3757"
        d="M385.788,432.722l9.221-9.221a3.471,3.471,0,0,0,0-4.9l-1.627-1.627a3.549,3.549,0,0,0-4.9,0l-8.5,8.5a7.836,7.836,0,0,0-10.791-8.463,1,1,0,0,0-.318,1.628l3.016,3.015-.642,1.584-1.569.648-3.026-3.026a1,1,0,0,0-1.628.318,7.83,7.83,0,0,0,9.422,10.567,3.481,3.481,0,0,0-.1.8,3.439,3.439,0,0,0,.34,1.471l-6.193,6.193-1.224.676c-.009,0-.013.014-.021.018a.963.963,0,0,0-.192.175,1,1,0,0,0-.135.133c0,.006-.01.008-.014.014l-2.772,4.377a1,1,0,0,0,.138,1.243l.863.862a1,1,0,0,0,1.242.137l4.378-2.772c.006,0,.009-.01.014-.014a4.349,4.349,0,0,0,.308-.327c.005-.008.014-.012.019-.02l.675-1.225,6.191-6.191a3.278,3.278,0,0,0,2.479.174l9.055,9.055a3.571,3.571,0,1,0,5.05-5.049Zm-17.669-4.36a5.816,5.816,0,0,1-1.665-4.876l2.286,2.286a1,1,0,0,0,1.089.218l2.573-1.064a1,1,0,0,0,.545-.549l1.048-2.586a1,1,0,0,0-.22-1.083l-2.272-2.272a5.844,5.844,0,0,1,6.125,8.071,1,1,0,0,0,.214,1.1l.007.007-2.22,2.22-.006-.006a1,1,0,0,0-1.1-.214A5.82,5.82,0,0,1,368.119,428.362Zm2.845,13.109-.45-.45,5.434-5.434.449.449Zm-3.036,1.885.045.045.656.655-1.911,1.211Zm10.528-8.109-1.765-1.764a1.451,1.451,0,0,1,.084-1.969L389.9,418.39a1.464,1.464,0,0,1,2.069,0l1.626,1.626a1.467,1.467,0,0,1,0,2.071l-13.126,13.124A1.491,1.491,0,0,1,378.456,435.247Zm14.676,9.868a1.607,1.607,0,0,1-2.221,0l-8.759-8.759,2.221-2.221,8.76,8.76a1.568,1.568,0,0,1,0,2.22Z" />

      <path stroke-linecap="round" stroke-linejoin="round" id="Path_3758" data-name="Path 3758"
        d="M391.108,443.091a.824.824,0,1,0,1.165,0A.823.823,0,0,0,391.108,443.091Z" />

      <path id="Path_3759" data-name="Path 3759"
        d="M391.3,420.688a.578.578,0,0,0-.818,0L379.071,432.1a.579.579,0,0,0,.821.818l11.4-11.406A.578.578,0,0,0,391.3,420.688Z" />
    </g>
</svg>
