<?xml version="1.0" standalone="no"?>
<!DOCTYPE svg PUBLIC "-//W3C//DTD SVG 20010904//EN"
 "http://www.w3.org/TR/2001/REC-SVG-20010904/DTD/svg10.dtd">
<svg version="1.0" xmlns="http://www.w3.org/2000/svg"
 width="1024.000000pt" height="1024.000000pt" viewBox="0 0 1024.000000 1024.000000"
 preserveAspectRatio="xMidYMid meet">
<metadata>
Created by potrace 1.14, written by Peter Selinger 2001-2017
</metadata>
<g transform="translate(0.000000,1024.000000) scale(0.100000,-0.100000)"
fill="#000000" stroke="none">
<path d="M5164 9571 c-28 -4 -67 -6 -87 -6 -20 0 -37 -2 -37 -5 0 -3 -19 -6
-43 -6 -43 -1 -127 -11 -182 -20 -16 -3 -46 -7 -65 -9 -19 -2 -35 -5 -35 -6 0
-1 -9 -3 -20 -4 -57 -8 -102 -17 -115 -21 -8 -3 -28 -8 -45 -11 -16 -2 -75
-16 -130 -29 -129 -32 -135 -34 -164 -40 -14 -3 -29 -8 -35 -12 -6 -3 -16 -7
-21 -8 -34 -5 -302 -97 -395 -136 -205 -84 -471 -215 -618 -303 -88 -53 -148
-90 -152 -95 -3 -3 -35 -25 -73 -49 -57 -37 -188 -130 -222 -158 -5 -5 -39
-31 -74 -58 -36 -28 -79 -63 -97 -80 -18 -16 -58 -52 -90 -80 -66 -56 -344
-331 -344 -340 0 -3 -11 -16 -25 -29 -14 -13 -25 -28 -25 -35 0 -6 -7 -11 -15
-11 -8 0 -15 -4 -15 -8 0 -5 -9 -20 -21 -33 -26 -30 -51 -62 -133 -169 -36
-47 -69 -89 -74 -95 -29 -37 -102 -148 -102 -155 0 -5 -6 -13 -13 -17 -11 -7
-19 -20 -51 -78 -6 -11 -13 -22 -16 -25 -7 -7 -29 -42 -40 -65 -5 -11 -21 -38
-34 -60 -14 -22 -37 -65 -53 -95 -15 -30 -31 -56 -35 -58 -5 -2 -8 -10 -8 -19
0 -8 -7 -21 -15 -30 -8 -8 -13 -19 -10 -24 4 -5 1 -9 -4 -9 -6 0 -11 -8 -11
-19 0 -10 -7 -24 -15 -31 -8 -7 -15 -20 -15 -29 0 -9 -4 -21 -8 -27 -9 -9 -92
-201 -107 -244 -1 -3 -6 -16 -12 -30 -13 -31 -64 -171 -67 -185 -2 -5 -6 -17
-9 -25 -7 -20 -28 -88 -31 -103 -2 -7 -6 -19 -9 -27 -5 -13 -27 -88 -33 -115
-1 -5 -11 -46 -22 -90 -33 -128 -82 -381 -88 -450 -1 -16 -5 -44 -8 -61 -3
-17 -8 -57 -11 -90 -14 -171 -17 -216 -20 -287 -1 -43 -5 -80 -8 -83 -3 -3 -2
-16 3 -28 4 -13 4 -29 -1 -39 -7 -11 -6 -17 0 -17 7 0 7 -8 2 -22 -5 -13 -5
-32 -1 -43 4 -11 4 -27 -1 -36 -5 -9 -6 -19 -2 -23 3 -3 7 -43 9 -89 1 -46 5
-119 9 -163 4 -43 8 -100 11 -126 2 -26 6 -59 8 -75 3 -15 8 -50 12 -78 6 -48
8 -59 18 -115 3 -14 8 -41 10 -60 3 -19 8 -45 11 -58 6 -28 10 -47 20 -97 11
-52 9 -47 34 -140 12 -44 24 -93 27 -110 3 -16 11 -36 16 -42 6 -7 8 -13 4
-13 -3 0 -1 -12 5 -27 6 -16 12 -35 14 -44 5 -26 81 -241 112 -319 4 -8 7 -17
8 -20 1 -3 7 -18 13 -33 7 -16 12 -33 12 -38 0 -5 5 -9 10 -9 6 0 9 -3 8 -7
-2 -11 9 -39 38 -98 13 -27 24 -56 24 -62 0 -7 4 -13 8 -13 4 0 14 -15 20 -34
24 -66 227 -427 244 -434 4 -2 8 -10 8 -18 0 -8 5 -14 10 -14 6 0 10 -6 10
-13 0 -7 9 -23 20 -35 11 -12 20 -26 20 -32 0 -5 5 -10 10 -10 6 0 10 -7 10
-15 0 -8 5 -15 10 -15 6 0 10 -5 10 -10 0 -6 22 -40 50 -75 27 -35 50 -69 50
-74 0 -5 3 -11 8 -13 4 -1 37 -39 72 -83 84 -104 96 -118 150 -179 70 -79 318
-326 384 -381 32 -28 66 -57 75 -65 9 -9 50 -42 91 -75 41 -33 77 -63 78 -67
2 -4 9 -8 15 -8 7 0 27 -14 44 -31 18 -16 33 -26 33 -22 0 4 4 3 8 -3 6 -9 91
-71 142 -104 8 -5 31 -20 50 -33 267 -174 676 -374 960 -466 36 -12 74 -26 85
-30 11 -5 70 -23 130 -40 166 -48 197 -55 315 -80 30 -6 66 -14 80 -17 39 -8
132 -24 169 -29 19 -3 48 -8 65 -11 54 -10 89 -14 156 -19 36 -2 76 -7 89 -9
13 -3 82 -8 154 -11 72 -3 132 -7 135 -10 3 -2 13 0 23 6 11 5 19 6 19 2 0 -9
118 -8 127 0 3 3 15 2 28 -3 13 -5 25 -7 28 -4 2 2 53 7 113 9 60 3 132 8 159
10 73 7 156 16 185 21 14 2 43 6 65 9 22 3 51 7 65 10 14 3 43 8 65 11 22 3
58 9 80 14 22 5 54 11 70 14 135 24 502 128 565 161 15 8 30 11 33 8 4 -3 13
0 22 7 8 7 15 9 15 5 0 -4 6 -3 13 2 6 6 37 20 67 31 30 11 78 30 105 43 28
12 55 23 60 24 17 4 313 150 390 193 113 63 135 77 135 85 0 4 5 7 12 7 13 0
111 61 116 72 2 5 10 8 18 8 8 0 14 5 14 11 0 5 5 7 10 4 6 -3 10 -2 10 3 0 5
16 17 35 28 19 10 35 22 35 26 0 5 6 8 14 8 8 0 16 3 18 8 2 4 28 25 58 47 30
22 60 44 67 50 6 5 26 21 44 35 200 153 464 404 624 595 28 33 59 69 70 80 11
12 29 34 40 49 52 71 91 121 98 124 4 2 7 10 7 18 0 8 4 14 9 14 5 0 20 17 32
38 13 20 25 39 29 42 6 5 99 144 115 172 6 9 29 48 51 85 74 121 155 273 160
298 1 6 9 31 18 57 15 46 20 69 33 148 8 51 8 207 0 265 -9 64 -43 189 -63
226 -8 16 -11 29 -7 29 5 0 3 4 -3 8 -5 4 -26 37 -46 74 -44 79 -61 101 -154
195 -68 69 -171 143 -244 176 -73 33 -116 50 -135 54 -27 6 -37 9 -55 16 -79
30 -334 27 -455 -5 -22 -6 -47 -12 -55 -13 -8 -2 -17 -4 -20 -5 -3 -1 -8 -2
-12 -1 -5 0 -8 -4 -8 -9 0 -6 -6 -10 -13 -10 -25 0 -144 -64 -212 -115 -125
-92 -208 -191 -291 -343 -14 -26 -34 -60 -44 -77 -11 -16 -28 -46 -39 -66 -11
-19 -27 -41 -35 -48 -9 -8 -16 -19 -16 -26 0 -8 -3 -15 -8 -17 -4 -1 -25 -28
-47 -58 -122 -171 -445 -491 -552 -548 -12 -7 -27 -18 -35 -25 -36 -34 -272
-177 -294 -177 -8 0 -14 -3 -14 -8 0 -4 -24 -18 -52 -31 -29 -13 -75 -34 -103
-47 -124 -57 -403 -147 -487 -158 -21 -2 -41 -7 -45 -9 -10 -6 -76 -18 -123
-23 -19 -1 -46 -5 -60 -9 -85 -19 -425 -26 -575 -11 -44 4 -90 8 -102 9 -13 0
-23 3 -23 7 0 3 -15 5 -32 4 -18 -1 -46 3 -63 7 -16 5 -46 11 -65 14 -67 11
-226 54 -315 85 -49 17 -94 32 -100 34 -5 1 -27 10 -49 19 -21 9 -40 17 -43
17 -6 0 -244 118 -268 133 -11 6 -57 36 -103 65 -45 28 -87 52 -92 52 -4 0
-10 3 -12 8 -1 4 -41 36 -88 72 -101 77 -121 94 -218 185 -77 72 -207 214
-252 274 -14 19 -37 50 -53 69 -15 19 -37 51 -49 71 -12 20 -30 45 -40 55 -10
11 -18 23 -18 27 0 5 -13 28 -30 52 -16 25 -30 49 -30 55 0 5 -7 15 -15 22 -8
7 -15 21 -15 30 0 10 -4 20 -8 22 -10 4 -70 127 -115 238 -48 116 -99 271
-112 340 -2 8 -8 33 -13 55 -19 71 -49 249 -57 345 -13 131 -13 140 -1 140 8
0 8 2 0 8 -17 10 -9 332 11 442 2 14 7 45 11 70 3 25 7 50 8 55 2 6 6 28 10
50 5 22 15 67 23 100 9 33 17 67 18 75 1 8 5 22 8 30 3 8 13 40 22 70 9 30 20
64 25 75 4 11 22 58 40 105 33 88 80 191 91 200 4 3 10 16 14 30 4 14 23 49
41 78 19 29 34 56 34 60 0 8 51 86 80 122 11 14 20 29 20 33 0 5 6 14 13 21 6
8 19 24 27 36 8 13 22 30 31 39 9 9 18 21 20 27 15 43 293 326 419 427 88 70
230 168 335 230 54 31 183 99 195 102 3 1 28 12 55 24 61 28 161 67 175 69 3
1 23 8 44 17 22 9 47 18 55 20 9 2 43 11 76 21 33 10 65 19 70 20 6 1 53 11
105 22 52 11 115 23 140 27 25 3 56 8 70 10 123 24 624 22 663 -2 5 -3 30 -7
56 -8 47 -4 151 -24 236 -45 22 -6 49 -13 60 -15 106 -24 396 -135 508 -196
10 -6 48 -26 85 -46 37 -19 74 -42 83 -49 8 -8 19 -14 23 -14 10 0 100 -62
104 -72 2 -4 10 -8 18 -8 8 0 14 -4 14 -8 0 -5 18 -18 39 -30 22 -12 41 -26
43 -30 2 -4 21 -20 43 -37 83 -61 276 -248 347 -335 134 -165 123 -151 176
-227 23 -34 42 -65 42 -70 0 -5 8 -18 18 -29 18 -22 29 -39 75 -124 56 -102
111 -175 191 -252 44 -43 83 -78 88 -78 4 0 17 -9 28 -20 11 -11 27 -20 35
-20 8 0 15 -4 15 -8 0 -9 78 -46 168 -81 28 -12 52 -18 52 -16 0 3 8 1 18 -4
15 -8 40 -13 122 -26 32 -6 185 -6 225 -1 104 14 221 49 310 93 75 38 204 126
205 141 0 6 4 12 10 12 8 0 32 24 95 94 27 29 65 86 65 95 0 6 5 11 11 11 5 0
7 5 4 10 -3 6 -1 10 4 10 6 0 11 6 11 14 0 7 7 19 15 26 9 7 13 15 11 18 -3 2
4 22 15 44 11 22 22 48 24 57 2 9 11 41 20 71 39 138 40 340 1 475 -29 103
-90 245 -106 245 -3 0 -7 6 -7 13 0 7 -31 64 -69 127 -39 63 -77 126 -85 139
-8 14 -22 34 -31 45 -10 11 -20 28 -24 38 -3 10 -9 18 -12 18 -4 0 -16 16 -26
35 -11 19 -23 35 -28 35 -4 0 -8 6 -8 14 0 8 -3 16 -8 18 -4 2 -25 28 -47 58
-34 46 -131 167 -210 259 -115 134 -321 335 -491 479 -22 17 -50 42 -64 53
-14 12 -50 40 -80 62 -30 23 -59 45 -65 49 -65 53 -251 178 -264 178 -5 0 -11
4 -13 8 -1 5 -34 27 -73 50 -38 23 -75 45 -80 49 -6 4 -33 19 -60 33 -28 14
-52 27 -55 30 -8 9 -313 157 -340 165 -14 4 -29 11 -35 15 -5 4 -48 21 -95 39
-118 46 -122 47 -150 59 -14 5 -45 16 -70 23 -25 7 -51 17 -57 22 -7 5 -13 6
-13 3 0 -4 -9 -2 -21 4 -11 6 -28 13 -37 15 -64 13 -188 51 -190 57 -2 5 -7 6
-10 4 -4 -2 -45 5 -92 15 -160 36 -225 49 -257 51 -18 1 -33 5 -33 9 0 3 -16
5 -35 4 -19 -1 -35 1 -35 5 0 3 -8 6 -17 6 -15 1 -82 8 -183 19 -14 2 -25 4
-25 5 0 10 -661 20 -741 11z"/>
<path d="M5325 6602 c-1 -1 -27 -5 -56 -8 -30 -2 -65 -7 -79 -10 -14 -3 -42
-8 -64 -10 -21 -2 -42 -7 -47 -10 -5 -3 -21 -7 -35 -10 -14 -3 -45 -11 -67
-20 -23 -8 -49 -16 -57 -19 -40 -9 -223 -96 -228 -108 -2 -4 -8 -5 -13 -1 -5
3 -9 0 -9 -5 0 -6 -5 -11 -10 -11 -24 0 -202 -139 -285 -224 -96 -97 -165
-178 -165 -194 0 -6 -4 -12 -9 -14 -21 -8 -161 -271 -161 -303 0 -8 -5 -15
-12 -15 -6 0 -9 -3 -6 -6 4 -3 -1 -22 -9 -42 -8 -20 -15 -38 -14 -39 0 -2 1
-4 0 -5 -18 -60 -49 -215 -55 -278 -11 -116 -6 -320 11 -400 3 -14 10 -45 15
-70 6 -25 13 -56 16 -70 26 -126 147 -375 238 -495 17 -22 38 -49 46 -59 29
-39 176 -183 225 -223 81 -64 218 -152 265 -169 3 -1 15 -5 28 -9 12 -4 22
-11 22 -16 0 -5 9 -9 19 -9 11 0 23 -5 26 -11 4 -6 13 -8 21 -5 8 3 14 2 14
-2 0 -7 77 -35 128 -47 9 -2 46 -11 82 -20 104 -26 146 -29 315 -30 180 0 253
7 349 33 20 6 36 8 36 6 0 -3 8 0 18 5 11 6 30 12 43 15 59 10 300 119 307
137 2 5 8 9 13 9 14 0 136 82 189 127 63 53 169 161 205 208 17 21 38 47 48
57 9 10 17 22 17 26 0 5 11 22 24 37 14 16 23 32 20 37 -3 4 -1 8 5 8 6 0 37
55 69 123 53 108 68 147 72 182 1 6 6 16 12 23 6 6 7 12 4 12 -4 0 -2 10 5 21
6 12 13 36 16 53 3 17 9 36 14 42 5 6 7 13 4 16 -2 2 1 39 9 81 15 85 18 340
6 408 -15 84 -22 124 -23 147 -1 12 -6 22 -11 22 -4 0 -6 7 -3 15 4 8 2 17 -3
20 -6 4 -10 17 -10 31 0 13 -4 32 -9 42 -5 9 -20 44 -32 77 -12 33 -34 83 -48
110 -14 28 -25 52 -26 55 -1 7 -42 73 -53 86 -5 5 -15 21 -22 35 -34 65 -169
216 -281 315 -128 113 -386 250 -544 290 -16 4 -34 9 -40 10 -39 13 -139 31
-220 40 -49 5 -246 10 -250 6z"/>
</g>
</svg>
