<svg width="469" height="330" viewBox="0 0 469 330" fill="none" xmlns="http://www.w3.org/2000/svg">
  <g filter="url(#filter0_d_5_21)">
    <rect x="207" y="59" width="188" height="233" rx="23" fill="#EA8383" />
  </g>
  <g filter="url(#filter1_d_5_21)">
    <path d="M207 92H395V269C395 281.703 384.703 292 372 292H230C217.297 292 207 281.703 207 269V92Z" fill="white" />
  </g>
  <g filter="url(#filter2_d_5_21)">
    <rect x="65" y="38" width="188" height="233" rx="22" fill="#F0F0F0" />
  </g>
  <rect x="117" y="96" width="119" height="7" rx="3.5" fill="#C4C4C4" />
  <rect x="117" y="126" width="119" height="7" rx="3.5" fill="#C4C4C4" />
  <rect x="117" y="156" width="119" height="7" rx="3.5" fill="#C4C4C4" />
  <rect x="117" y="186" width="119" height="7" rx="3.5" fill="#C4C4C4" />
  <rect x="117" y="216" width="119" height="7" rx="3.5" fill="#C4C4C4" />
  <path d="M65 61C65 48.2975 75.2975 38 88 38H230C242.703 38 253 48.2975 253 61V73H65V61Z" fill="#C4C4C4" />
  <path d="M65 61C65 57.6863 67.6863 55 71 55H101V271H87C74.8497 271 65 261.15 65 249V61Z" fill="#C4C4C4" />
  <defs>
    <filter id="filter0_d_5_21" x="198" y="51" width="212" height="257" filterUnits="userSpaceOnUse"
      color-interpolation-filters="sRGB">
      <feFlood flood-opacity="0" result="BackgroundImageFix" />
      <feColorMatrix in="SourceAlpha" type="matrix" values="0 0 0 0 0 0 0 0 0 0 0 0 0 0 0 0 0 0 127 0"
        result="hardAlpha" />
      <feOffset dx="3" dy="4" />
      <feGaussianBlur stdDeviation="6" />
      <feComposite in2="hardAlpha" operator="out" />
      <feColorMatrix type="matrix" values="0 0 0 0 0 0 0 0 0 0 0 0 0 0 0 0 0 0 0.25 0" />
      <feBlend mode="normal" in2="BackgroundImageFix" result="effect1_dropShadow_5_21" />
      <feBlend mode="normal" in="SourceGraphic" in2="effect1_dropShadow_5_21" result="shape" />
    </filter>
    <filter id="filter1_d_5_21" x="198" y="84" width="212" height="224" filterUnits="userSpaceOnUse"
      color-interpolation-filters="sRGB">
      <feFlood flood-opacity="0" result="BackgroundImageFix" />
      <feColorMatrix in="SourceAlpha" type="matrix" values="0 0 0 0 0 0 0 0 0 0 0 0 0 0 0 0 0 0 127 0"
        result="hardAlpha" />
      <feOffset dx="3" dy="4" />
      <feGaussianBlur stdDeviation="6" />
      <feComposite in2="hardAlpha" operator="out" />
      <feColorMatrix type="matrix" values="0 0 0 0 0 0 0 0 0 0 0 0 0 0 0 0 0 0 0.25 0" />
      <feBlend mode="normal" in2="BackgroundImageFix" result="effect1_dropShadow_5_21" />
      <feBlend mode="normal" in="SourceGraphic" in2="effect1_dropShadow_5_21" result="shape" />
    </filter>
    <filter id="filter2_d_5_21" x="50" y="21" width="228" height="273" filterUnits="userSpaceOnUse"
      color-interpolation-filters="sRGB">
      <feFlood flood-opacity="0" result="BackgroundImageFix" />
      <feColorMatrix in="SourceAlpha" type="matrix" values="0 0 0 0 0 0 0 0 0 0 0 0 0 0 0 0 0 0 127 0"
        result="hardAlpha" />
      <feOffset dx="5" dy="3" />
      <feGaussianBlur stdDeviation="10" />
      <feComposite in2="hardAlpha" operator="out" />
      <feColorMatrix type="matrix" values="0 0 0 0 0 0 0 0 0 0 0 0 0 0 0 0 0 0 0.25 0" />
      <feBlend mode="normal" in2="BackgroundImageFix" result="effect1_dropShadow_5_21" />
      <feBlend mode="normal" in="SourceGraphic" in2="effect1_dropShadow_5_21" result="shape" />
    </filter>
  </defs>
</svg>
