<svg xmlns="http://www.w3.org/2000/svg" version="1.1" xmlns:xlink="http://www.w3.org/1999/xlink" xmlns:svgjs="http://svgjs.com/svgjs" width="1000" height="1000"><g transform="matrix(31.25,0,0,31.25,-12.17583155632019,27.402354836463928)"><svg xmlns="http://www.w3.org/2000/svg" version="1.1" xmlns:xlink="http://www.w3.org/1999/xlink" xmlns:svgjs="http://svgjs.com/svgjs" width="32" height="30"><svg width="32" height="30" xmlns="http://www.w3.org/2000/svg" clip-rule="evenodd" version="1.1">
 <g id="Layer_1">
  <title>Layer 1</title>
  <g id="svg_11" transform="translate(4 3) scale(0.93 0.93)" data-gra="path-name">
   <path id="svg_14" fill="currentColor" d="m24.58993,15.56306a3.1521,3.1521 90 0 1 2.7921,4.6222a15.125,15.125 90 1 1 -0.0242,-14.3355a3.1581,3.1581 90 0 1 -2.7649,4.6736a3.1067,3.1067 90 0 1 -2.7497,-1.6154a8.827,8.827 90 1 0 -0.0212,8.3067a3.146,3.146 90 0 1 2.7679,-1.6517l0,0.0001z"></path>
   <circle id="svg_13" fill="#0497d9" r="5" cy="12.91826" cx="13.92283"></circle>
  </g>
 </g>

</svg></svg></g></svg>