<svg viewBox="0 0 12 12" xmlns="http://www.w3.org/2000/svg" fill='currentColor'>
  <path
    d="M10.7071 1.29279C10.5196 1.10532 10.2652 1 10.0001 1C9.73492 1 9.48061 1.10532 9.29308 1.29279L6.00008 4.58579L2.70708 1.29279C2.51848 1.11063 2.26588 1.00983 2.00368 1.01211C1.74148 1.01439 1.49067 1.11956 1.30526 1.30497C1.11985 1.49038 1.01469 1.74119 1.01241 2.00339C1.01013 2.26558 1.11092 2.51818 1.29308 2.70679L4.58608 5.99979L1.29308 9.29279C1.19757 9.38503 1.12139 9.49538 1.06898 9.61738C1.01657 9.73939 0.988985 9.87061 0.987831 10.0034C0.986677 10.1362 1.01198 10.2678 1.06226 10.3907C1.11254 10.5136 1.18679 10.6253 1.28069 10.7192C1.37458 10.8131 1.48623 10.8873 1.60913 10.9376C1.73202 10.9879 1.8637 11.0132 1.99648 11.012C2.12926 11.0109 2.26048 10.9833 2.38249 10.9309C2.50449 10.8785 2.61483 10.8023 2.70708 10.7068L6.00008 7.41379L9.29308 10.7068C9.48168 10.8889 9.73429 10.9897 9.99648 10.9875C10.2587 10.9852 10.5095 10.88 10.6949 10.6946C10.8803 10.5092 10.9855 10.2584 10.9878 9.99619C10.99 9.73399 10.8892 9.48139 10.7071 9.29279L7.41408 5.99979L10.7071 2.70679C10.8946 2.51926 10.9999 2.26495 10.9999 1.99979C10.9999 1.73462 10.8946 1.48031 10.7071 1.29279Z" />
</svg>
